<svg height="512" viewBox="0 0 128 128" width="512" xmlns="http://www.w3.org/2000/svg"><g><path d="m123.02 59.688a1.751 1.751 0 0 0 -2.149-1.51 8.269 8.269 0 0 1 -7.261-1.715 1.748 1.748 0 0 0 -1.974-.2 5.723 5.723 0 0 1 -2.756.7 5.786 5.786 0 0 1 -5.448-3.87 1.751 1.751 0 0 0 -1.528-1.165 8.328 8.328 0 0 1 -7.714-8.268 8 8 0 0 1 .11-1.26 1.75 1.75 0 0 0 -.392-1.407 6.416 6.416 0 0 1 -1.126-6.422 1.75 1.75 0 0 0 -.7-2.086 6.462 6.462 0 0 1 -3.022-5.485 6.175 6.175 0 0 1 .271-1.839 1.749 1.749 0 0 0 -1.4-2.25 41.481 41.481 0 0 0 -23.931 3.489 41.111 41.111 0 0 0 -17.69-3.96 41.56 41.56 0 1 0 17.7 79.16 41.541 41.541 0 0 0 59.24-37.6 39.331 39.331 0 0 0 -.23-4.312zm-76.71 42.372a38.06 38.06 0 0 1 0-76.12 37.673 37.673 0 0 1 13.761 2.58 41.535 41.535 0 0 0 .005 70.964 37.793 37.793 0 0 1 -13.766 2.576zm35.38 0a38.06 38.06 0 1 1 3.91-75.921q-.036.426-.036.861a9.938 9.938 0 0 0 3.554 7.642 9.8 9.8 0 0 0 -.244 2.168 9.982 9.982 0 0 0 1.872 5.809c-.035.355-.052.7-.052 1.041a11.843 11.843 0 0 0 9.871 11.64 9.271 9.271 0 0 0 11.7 4.535 11.764 11.764 0 0 0 7.43 2.054c.039.692.059 1.4.059 2.114a38.1 38.1 0 0 1 -38.064 38.057z"/><path d="m105.575 85.364a32.508 32.508 0 0 1 -4.773 4.362 1.75 1.75 0 0 0 2.092 2.806 36.041 36.041 0 0 0 5.289-4.832 1.751 1.751 0 0 0 -2.608-2.336z"/><path d="m35.609 33.167a4.75 4.75 0 1 0 4.75 4.75 4.755 4.755 0 0 0 -4.75-4.75zm0 6a1.25 1.25 0 1 1 1.25-1.25 1.252 1.252 0 0 1 -1.25 1.25z"/><path d="m73.5 36.167a4.75 4.75 0 1 0 4.75 4.75 4.755 4.755 0 0 0 -4.75-4.75zm0 6a1.25 1.25 0 1 1 1.25-1.25 1.252 1.252 0 0 1 -1.25 1.25z"/><path d="m64 53a4.75 4.75 0 1 0 4.75 4.75 4.756 4.756 0 0 0 -4.75-4.75zm0 6a1.25 1.25 0 1 1 1.25-1.25 1.252 1.252 0 0 1 -1.25 1.25z"/><path d="m86.115 82a4.75 4.75 0 1 0 4.75 4.75 4.756 4.756 0 0 0 -4.75-4.75zm0 6a1.25 1.25 0 1 1 1.25-1.25 1.252 1.252 0 0 1 -1.25 1.25z"/><path d="m19.442 57.167a4.75 4.75 0 1 0 4.75 4.75 4.755 4.755 0 0 0 -4.75-4.75zm0 6a1.25 1.25 0 1 1 1.25-1.25 1.252 1.252 0 0 1 -1.25 1.25z"/><path d="m29.109 73.833a4.75 4.75 0 1 0 4.75 4.75 4.756 4.756 0 0 0 -4.75-4.75zm0 6a1.25 1.25 0 1 1 1.25-1.25 1.251 1.251 0 0 1 -1.25 1.25z"/><path d="m32.312 51.066a1.75 1.75 0 0 0 -2.848 2.034l2.442 3.417a1.75 1.75 0 1 0 2.848-2.036z"/><path d="m84.2 65.018a1.75 1.75 0 0 0 2.848-2.036l-2.323-3.25a1.75 1.75 0 1 0 -2.848 2.036z"/><path d="m40.833 87.333a1.75 1.75 0 0 0 -1.75 1.75v4.334a1.75 1.75 0 0 0 3.5 0v-4.334a1.75 1.75 0 0 0 -1.75-1.75z"/><path d="m65.521 75.971-5.142 1.953a1.75 1.75 0 1 0 1.242 3.276l5.142-1.953a1.75 1.75 0 0 0 -1.242-3.272z"/><path d="m110.235 69.314-3.977 1.511a1.75 1.75 0 1 0 1.242 3.275l3.978-1.511a1.75 1.75 0 0 0 -1.243-3.272z"/></g></svg>