<?xml version="1.0" encoding="iso-8859-1"?>
<!-- Generator: Adobe Illustrator 19.0.0, SVG Export Plug-In . SVG Version: 6.00 Build 0)  -->
<svg version="1.1" id="Capa_1" xmlns="http://www.w3.org/2000/svg" xmlns:xlink="http://www.w3.org/1999/xlink" x="0px" y="0px"
	 viewBox="0 0 509.287 509.287" style="enable-background:new 0 0 509.287 509.287;" xml:space="preserve">
<circle style="fill:#71D456;" cx="254.644" cy="254.644" r="254.644"/>
<path style="fill:#F7CFA2;" d="M389.934,420.111L352.636,157.33H156.652l-37.298,262.781c-3.052,22.718,14.241,42.723,37.298,42.723
	h195.984C375.354,462.834,392.985,442.49,389.934,420.111z"/>
<ellipse style="fill:#F0582F;" cx="254.644" cy="332.291" rx="101.383" ry="72.562"/>
<path style="fill:#F0BA7A;" d="M359.756,121.049c0-56.286-47.131-102.061-105.113-102.061S149.531,64.763,149.531,121.049
	c0,12.885,2.374,25.091,6.781,36.281h196.662C357.383,146.14,359.756,133.934,359.756,121.049z"/>
<g>
	<path style="fill:#FFFFFF;" d="M196.323,327.544c-0.339,0-0.678,0-1.017,0c-3.052,0-5.764-2.713-5.764-5.764
		c0-3.052,2.713-5.764,5.764-5.764c1.695,0,3.052,0.678,4.069,1.695c2.034,2.034,5.086,2.034,7.121,0.339
		c2.034-2.034,2.034-5.086,0.339-7.121c-3.052-3.052-7.121-5.086-11.528-5.086c-8.816,0-15.936,7.121-15.936,15.936
		c0,8.477,6.442,15.258,14.919,15.936c0.339,0,0.678,0,1.017,0c3.052,0,5.764,2.713,5.764,5.764c0,3.052-2.713,5.764-5.764,5.764
		c-1.695,0-3.052-0.678-4.069-1.695c-2.034-2.034-5.086-2.034-7.121-0.339c-2.034,1.695-2.034,5.086-0.339,7.121
		c3.052,3.052,7.121,5.086,11.528,5.086c8.816,0,15.936-7.121,15.936-15.936S204.8,327.883,196.323,327.544z"/>
	<path style="fill:#FFFFFF;" d="M284.821,348.906h-12.207v-38.315c0-2.713-2.373-5.086-5.086-5.086
		c-2.713,0-5.086,2.374-5.086,5.086v43.401c0,2.713,2.374,5.086,5.086,5.086h17.293c2.713,0,5.086-2.374,5.086-5.086
		C289.907,351.279,287.534,348.906,284.821,348.906z"/>
	<path style="fill:#FFFFFF;" d="M241.081,308.895c-0.678-2.034-2.713-3.391-4.747-3.391c-2.034,0-4.069,1.356-4.747,3.391
		l-16.615,43.401c-1.017,2.713,0.339,5.425,3.052,6.442c0.678,0.339,1.356,0.339,1.695,0.339c2.034,0,4.069-1.356,4.747-3.391
		l3.73-9.833h16.275l3.73,9.833c1.017,2.713,4.069,4.069,6.442,3.052c2.713-1.017,4.069-4.069,3.052-6.442L241.081,308.895z
		 M232.265,336.021l4.408-11.189l4.408,11.189H232.265z"/>
	<path style="fill:#FFFFFF;" d="M324.832,305.505h-25.77c-2.713,0-5.086,2.374-5.086,5.086s2.374,5.086,5.086,5.086h7.799v38.315
		c0,2.713,2.374,5.086,5.086,5.086s5.086-2.374,5.086-5.086v-38.315h7.799c2.713,0,5.086-2.374,5.086-5.086
		S327.544,305.505,324.832,305.505z"/>
</g>
<g>
</g>
<g>
</g>
<g>
</g>
<g>
</g>
<g>
</g>
<g>
</g>
<g>
</g>
<g>
</g>
<g>
</g>
<g>
</g>
<g>
</g>
<g>
</g>
<g>
</g>
<g>
</g>
<g>
</g>
</svg>
