<svg id="Capa_1" enable-background="new 0 0 512 512" height="512" viewBox="0 0 512 512" width="512" xmlns="http://www.w3.org/2000/svg"><g><path d="m83.31 102.501c85.572 0 91.241-80.131 62.991-96.863-29.341-17.378-43.775 10.965-62.991 10.965s-33.65-28.343-62.991-10.965c-28.25 16.733-22.581 96.863 62.991 96.863z" fill="#e7889d"/><path d="m409.499 428.69c0-85.572 80.131-91.241 96.863-62.991 17.378 29.341-10.965 43.775-10.965 62.991s28.344 33.65 10.965 62.991c-16.732 28.251-96.863 22.582-96.863-62.991z" fill="#e7889d"/><path d="m409.499 428.69c0 34.47 13.005 55.967 29.628 67.512 13.043-16.659 21.607-36.548 24.645-57.783 4.223-29.518-2.579-58.113-17.263-81.617-19.988 9.997-37.01 32.452-37.01 71.888z" fill="#e16e7e"/><path d="m155.224 65.441c-23.929-14.93-52.694-21.356-81.643-17.212-21.858 3.128-41.537 11.916-57.768 24.666 11.549 16.613 33.042 29.607 67.497 29.607 39.47-.001 61.93-17.051 71.914-37.061z" fill="#e16e7e"/><path d="m110.843 401.157c-59.927-59.927-97.935-135.855-109.916-219.575-7.104-49.648 27.384-95.655 77.032-102.76 49.647-7.105 95.654 27.383 102.759 77.032 6.372 44.528 26.619 84.943 58.551 116.876 31.932 31.932 72.348 52.178 116.877 58.552 49.647 7.104 84.135 53.11 77.032 102.759-7.105 49.648-53.112 84.136-102.76 77.031-83.719-11.979-159.648-49.988-219.575-109.915z" fill="#e7889d"/><g><g fill="#fff"><ellipse cx="97.68" cy="300.134" rx="23.725" ry="29.792" transform="matrix(.707 -.707 .707 .707 -183.617 156.977)"/><ellipse cx="211.867" cy="414.32" rx="23.725" ry="29.792" transform="matrix(.707 -.707 .707 .707 -230.914 271.164)"/></g><g fill="#4e5660"><path d="m138.24 311.683c-1.919 0-3.838-.732-5.303-2.196-2.929-2.929-2.929-7.678-.001-10.607 2.605-2.605 2.605-6.843 0-9.448-2.602-2.604-6.841-2.604-9.447 0-2.929 2.929-7.678 2.929-10.606 0-2.929-2.929-2.929-7.678 0-10.606 8.453-8.453 22.207-8.453 30.661-.001 8.453 8.454 8.453 22.208 0 30.662-1.464 1.463-3.384 2.196-5.304 2.196z"/><path d="m227.872 401.315c-1.919 0-3.838-.732-5.303-2.196-2.929-2.929-2.929-7.678 0-10.607 2.605-2.605 2.605-6.843 0-9.448-2.603-2.603-6.841-2.604-9.447 0-2.929 2.929-7.678 2.929-10.607 0s-2.929-7.678 0-10.607c8.453-8.453 22.207-8.453 30.661 0 8.453 8.454 8.453 22.208.001 30.662-1.465 1.463-3.385 2.196-5.305 2.196z"/><path d="m170.571 368.875c-7.261 0-14.248-2.872-19.411-8.035-5.609-5.61-8.514-13.372-7.97-21.299.284-4.133 3.864-7.259 7.996-6.969 4.132.284 7.253 3.864 6.969 7.996-.247 3.6 1.069 7.122 3.612 9.665 2.542 2.542 6.06 3.857 9.665 3.611 4.132-.271 7.712 2.836 7.996 6.969.284 4.132-2.836 7.712-6.969 7.996-.63.044-1.261.066-1.888.066z"/></g></g><g fill="#e16e7e"><path d="m193.846 204.516c-5.482-13.481-9.534-27.593-12.086-42.178-27.414 2.732-51.818.734-68.857-3.29-11.631-2.749-23.281 4.455-26.027 16.083-2.745 11.628 4.455 23.281 16.083 26.027 25.878 6.111 57.747 7.587 90.887 3.358z"/><path d="m369.467 334.213c-20.853 17.373-41.823 29.274-57.97 35.485-11.152 4.289-16.714 16.807-12.426 27.958 4.282 11.129 16.786 16.724 27.959 12.425 23.462-9.025 53.183-26.464 81.261-52.309-10.505-10.786-23.742-19.038-38.824-23.559z"/><path d="m239.27 272.731c-1.909-1.909-3.773-3.85-5.598-5.818-8.631 3.389-16.655 5.888-23.699 7.514-11.642 2.686-18.902 14.301-16.216 25.944 2.677 11.601 14.256 18.912 25.944 16.216 14.687-3.389 32.028-9.459 50.332-18.444-10.932-7.393-21.228-15.877-30.763-25.412z"/></g></g></svg>